<?xml version="1.0" encoding="utf-8"?>
<!-- Generator: Adobe Illustrator 22.0.1, SVG Export Plug-In . SVG Version: 6.00 Build 0)  -->
<svg version="1.1" id="Calque_1" xmlns="http://www.w3.org/2000/svg" xmlns:xlink="http://www.w3.org/1999/xlink" x="0px" y="0px"
	 viewBox="0 0 432 432" style="enable-background:new 0 0 432 432;" xml:space="preserve">
<style type="text/css">
	.st0{fill:#0E5A60;}
	.st1{fill:#828068;}
	.st2{fill:#7E2038;}
	.st3{fill:#1E4847;}
	.st4{fill:#AC847B;}
	.st5{fill:#FDECF0;}
	.st6{fill:#C5A36B;}
	.st7{fill:#D0AFA8;}
	.st8{fill:#9AA3AD;}
	.st9{fill:#9A8266;}
	.st10{fill:#91ACBA;}
	.st11{fill:#5C748E;}
	.st12{fill:#313F52;}
	.st13{fill:#96683E;}
	.st14{fill:#E4DDC2;}
	.st15{fill:#DED3C6;}
	.st16{fill:#E7E6E6;}
	.st17{fill:#BFD4DD;}
	.st18{fill:#FCE2DF;}
	.st19{fill:#CD8C56;}
	.st20{fill:#343434;}
	.st21{fill:#5D6F59;}
	.st22{fill:#C49253;}
	.st23{fill:#B88E5C;}
	.st24{fill:#E9A197;}
	.st25{fill:#72968E;}
	.st26{fill:#1B1B1B;}
	.st27{fill:#BD6581;}
	.st28{fill:#F2F2F2;}
	.st29{fill:#3D313B;}
	.st30{fill:#4E5254;}
	.st31{fill:#4B262E;}
	.st32{fill:#B093A5;}
	.st33{fill:#04707D;}
	.st34{fill:#A39BB2;}
	.st35{fill:#E3E1E0;}
	.st36{fill:#020203;}
	.st37{fill:#523F50;}
	.st38{fill:#81434D;}
	.st39{fill:#B58186;}
	.st40{fill:#563138;}
	.st41{fill:#E8B73C;}
	.st42{fill:#EC667A;}
	.st43{fill:#93A5A9;}
	.st44{fill:#A6394D;}
	.st45{fill:#6BC4CD;}
	.st46{fill:#3F6753;}
	.st47{fill:#66976A;}
	.st48{fill:#E3C8BD;}
	.st49{fill:#C8878D;}
	.st50{fill:#AE4043;}
	.st51{fill:#8B9976;}
	.st52{fill:#E7929D;}
	.st53{fill:#1E382B;}
	.st54{fill:#EF787A;}
	.st55{fill:#A81916;}
	.st56{fill:#E04747;}
	.st57{fill:#A5606F;}
	.st58{fill:#6C323C;}
	.st59{fill:#9C6434;}
	.st60{fill:#668CB9;}
	.st61{fill:#485B97;}
	.st62{fill:#F0C872;}
	.st63{fill:#D25215;}
	.st64{fill:#F1E0C6;}
	.st65{fill:#E1CBAC;}
	.st66{fill:#A9937F;}
	.st67{fill:#788A28;}
	.st68{fill:#A3AF32;}
	.st69{fill:#C1292E;}
	.st70{fill:#066938;}
	.st71{fill:#109F3D;}
	.st72{fill:#1861A9;}
	.st73{fill:#E00825;}
	.st74{fill:#F9B03D;}
	.st75{fill:#B4B4B4;}
	.st76{fill:#E52629;}
	.st77{fill:#DDC6A7;}
	.st78{fill:#746458;}
	.st79{fill:#754D24;}
	.st80{fill:#F39323;}
	.st81{fill:#A1AA40;}
	.st82{fill:#DBAD5D;}
	.st83{fill:#8EC045;}
	.st84{fill:#BA9BC9;}
	.st85{fill:#9B7574;}
	.st86{fill:#C68A89;}
	.st87{fill:#DF5564;}
	.st88{fill:#AA353D;}
	.st89{fill:#B75266;}
	.st90{fill:#DB6455;}
	.st91{fill:#975F74;}
	.st92{fill:#804F63;}
	.st93{fill:#FFFFFF;}
	.st94{fill:#CDCCCC;}
	.st95{fill:#A67D52;}
	.st96{fill:#DB8E98;}
	.st97{fill:#F3EED1;}
	.st98{fill:#CCD8B0;}
	.st99{fill:#47663C;}
	.st100{fill:#355129;}
	.st101{fill:#EEBCC5;}
	.st102{fill:#9A9999;}
	.st103{fill:#676767;}
	.st104{fill:#C69C6C;}
	.st105{fill:#4E3B3B;}
	.st106{fill:#D7ACAB;}
	.st107{fill:#CA5A69;}
	.st108{fill:#EC8A9F;}
	.st109{fill:#D4175B;}
	.st110{fill:#828BC5;}
	.st111{fill:#884C64;}
	.st112{fill:#F6B7BB;}
	.st113{fill:#F8D9C4;}
	.st114{fill:#F5CACD;}
	.st115{fill:#F6B1B3;}
	.st116{fill:#F9BFA1;}
	.st117{fill:#9BD2CC;}
	.st118{fill:#83B143;}
	.st119{fill:#959C57;}
	.st120{fill:#60643C;}
	.st121{fill:#C469A5;}
	.st122{fill:#9D8098;}
	.st123{fill:#9E1832;}
	.st124{fill:#BC1821;}
	.st125{fill:#AF5617;}
	.st126{fill:#DB6428;}
	.st127{fill:#FFFFFE;}
	.st128{fill:#141112;}
	.st129{fill:#EEC8A0;}
	.st130{fill:#CA1517;}
	.st131{fill:none;}
	.st132{fill:#B51918;}
	.st133{fill:#918A82;}
	.st134{fill:#878179;}
	.st135{fill:#F39BA4;}
	.st136{fill:#F0818B;}
	.st137{fill:#9F1915;}
	.st138{fill:#AB182A;}
	.st139{fill:#24612B;}
	.st140{fill:#114C25;}
	.st141{fill:#C7495D;}
	.st142{fill:#EBC164;}
	.st143{fill:#F6B6B8;}
	.st144{fill:#A9654E;}
	.st145{fill:#2D1B14;}
	.st146{fill:#CA3B63;}
	.st147{fill:#4A2C22;}
	.st148{fill:#E54967;}
	.st149{fill:#889F63;}
	.st150{fill:#808181;}
	.st151{fill:#8C633A;}
	.st152{fill:#CDAC81;}
	.st153{fill:#977D61;}
	.st154{fill:#423A30;}
	.st155{fill:#3D574A;}
	.st156{fill:#CCCDC9;}
	.st157{fill:#F1866C;}
	.st158{fill:#D8B67C;}
	.st159{fill:#432918;}
	.st160{fill:#D4A479;}
	.st161{fill:#E6C283;}
	.st162{fill:#3C3C3B;}
	.st163{fill:#C6C6C6;}
	.st164{fill:#F4A3A6;}
	.st165{fill:#B2B2B2;}
	.st166{fill:#1D71B8;}
	.st167{fill:#B4DCD3;}
	.st168{fill:#CEE7E1;}
	.st169{fill:#99D0C3;}
	.st170{fill:#3B3835;}
	.st171{fill:#E7CFB3;}
	.st172{fill:#DCC19F;}
	.st173{fill:#D4B188;}
	.st174{fill:#F3B68B;}
	.st175{fill:#F9C19B;}
	.st176{fill:#FCDCC8;}
	.st177{fill:#A68B74;}
	.st178{fill:#CCB295;}
	.st179{fill:#D2B89A;}
	.st180{fill:#3D3329;}
	.st181{fill:#966837;}
	.st182{fill:#A06E3B;}
	.st183{fill:#B57D44;}
	.st184{fill:#13110C;}
	.st185{fill:#D5D4D4;}
	.st186{fill:#9B6228;}
	.st187{fill:#844C16;}
	.st188{fill:#D01419;}
	.st189{fill:#4C2814;}
	.st190{fill:#B71918;}
	.st191{fill:#C11718;}
</style>
<g>
	<path class="st39" d="M354.6,143.5c-1.3-10.5-4.4-20.3-10-29.4c-7.9-13-18.9-22.2-33.2-27.3c-8.7-3.1-17.8-4.2-27-3.4
		c-8.5,0.7-16.7,2.6-24.4,6.2c-5.4,2.5-10.3,5.8-15.1,9.3c-8.9,6.4-16.5,14.2-22.7,23.3c-2,2.9-3.9,5.9-5.9,9
		c-0.2-0.5-0.3-0.7-0.4-1c-1.7-4.5-3.8-8.8-6.7-12.8c-4.2-5.9-9.3-10.9-14.7-15.6c-11.2-9.8-23.9-16.7-38.7-19.3
		c-6.8-1.2-13.6-1.6-20.5-0.6c-7.5,1.1-14.5,3.8-21,7.8c-13.2,8-22.5,19.6-28.8,33.5c-2.8,6.3-4.1,12.9-5.1,19.7
		c-1.4,10.4-1.3,20.9,0.6,31.2c3.2,16.8,9,32.7,17.5,47.5c5,8.8,10.7,17.1,16.7,25.2c10.4,14.1,20.9,28.1,32.7,41.1
		c9.3,10.2,18.8,20.2,28,30.5c6.5,7.2,12.7,14.6,19.2,21.8c4.8,5.4,9.9,10.5,14.9,15.7c1,1.1,2.1,2.1,3.4,2.8c3.1,1.9,5,1.1,6.7-0.6
		c3.8-3.6,7.8-7.2,11.5-10.9c5.3-5.2,10.4-10.7,15.7-15.9c9.4-9.1,18.5-18.5,27.5-28c9.1-9.7,18.2-19.5,26.3-30.1
		c6.4-8.5,12.6-17.1,19-25.6c5.8-7.8,10.9-16.1,15.2-24.9c5.8-11.5,11.2-23.1,15.2-35.4c2.8-8.5,4.7-17.1,5-26
		C355.8,155.3,355.4,149.4,354.6,143.5z"/>
	<g>
		<path class="st92" d="M368.2,187.5c-2.6-3.3-5.9-5.6-9.8-6.9c-5.1-1.7-10.2-1.6-15.3-0.3c-4.7,1.2-9.1,3-13.2,5.6
			c-0.3,0.2-0.5,0.5-1.1,0.4c0.3-0.4,0.6-0.7,0.9-0.9c3-3,5.9-6,8.9-9c5.7-5.7,11.1-11.7,16.2-17.9c4.7-5.8,8.8-12,11.8-18.9
			c2.1-4.8,3.7-9.7,4.4-14.9c0.7-5,0.6-10.1,0.1-15.1c-0.9-8.2-3.9-15.5-9-22c-4.7-6.1-10.8-10-18.3-11.7
			c-6.2-1.4-11.8-0.3-16.5,4.3c-0.1,0.1-0.3,0.2-0.4,0.2c-0.2-1.2-0.4-2.3-0.7-3.4c-2.3-8.2-11.5-13.7-19.8-11.8
			c-3.2,0.7-5.9,2.3-7.6,5.2c-1.2,1.9-1.6,4-1.1,6.2c0.5,2.1,1.7,3.7,3.2,5.2c0.1,0.1,0.3,0.3,0.5,0.3c0.5,0.2,1,0.2,1.5-0.2
			c0.4-0.4,0.6-0.8,0.5-1.4c-0.1-0.3-0.2-0.7-0.4-1c-0.3-0.8-0.7-1.5-1.1-2.3c-0.7-1.7-0.4-3.2,0.6-4.6c0.8-1.1,1.9-1.9,3.2-2.4
			c2.2-0.8,4.4-0.8,6.7-0.3c6.6,1.7,10.5,7.9,9,14.7c-1.5,6.8-5.8,11.3-12.2,13.7c-3.4,1.2-6.9,1.7-10.4,1.6
			c-4.7-0.1-9.4-0.3-14-0.6c-5.3-0.4-10.5-0.9-15.8-1c-3.2,0-6.5,0-9.7,0.3c-7.3,0.7-14,3.1-20.2,6.9c-0.3,0.2-0.7,0.4-1,0.6
			c-6.4,3-11.4,7.6-15.4,13.3c-3.6,5.2-6.4,10.8-8.3,16.8c-0.1,0.3-0.2,0.6-0.3,1c-0.1,0-0.1,0-0.2-0.1c0.1-0.7,0.1-1.3,0.2-2
			c0.2-5.2,0.1-10.3-0.7-15.5c-1.7-10.1-6.5-18.5-14.1-25.2c-5.7-5.1-12.3-8.4-20-9.2c-5.3-0.5-10.4,0-15.4,1.9
			c-1.1,0.4-2.2,0.8-3.4,1.1c-3,0.9-6,1.7-9,2.6c-4.7,1.4-9.4,2.9-14.1,4.3c-3.9,1.1-7.8,1.6-11.8,1.2c-4.1-0.5-7.2-2.4-8.9-6.4
			c-0.7-1.6-0.8-3.2-0.3-4.9c0.8-2.5,2.2-4.6,4.8-5.5c1.7-0.6,3.4-0.5,4.9,0.3c1.3,0.7,2,1.8,1.3,3.4c-0.2,0.4-0.3,0.8-0.4,1.3
			c-0.2,0.8,0,1.3,0.5,1.7c0.5,0.3,1.3,0.2,1.8-0.4c0.7-0.9,1.3-1.8,1.8-2.8c0.5-1.1,0.5-2.2,0.1-3.3c-0.7-1.8-1.9-3.2-3.7-4
			c-5.9-2.8-11.9,0.4-14.2,4.3c-1.7,2.9-2.4,5.9-1.8,9.2c0,0.2,0,0.5,0,0.8c-0.4-0.2-0.6-0.3-0.9-0.5c-3-1.6-6.3-2.4-9.7-2.3
			c-2.6,0-5.1,0.5-7.6,1.3c-10.9,3.7-18.7,10.9-23.3,21.3c-4.2,9.4-4.7,19.3-2.3,29.2c1.9,7.7,5.6,14.4,11.4,19.8
			c2.1,2,4.2,3.8,6.6,5.4c0.3,0.2,0.5,0.4,0.9,0.8c-0.5,0-0.7,0-1,0c-1.6,0.1-3.2,0-4.8,0.2c-4.9,0.6-9.3,2.4-13.3,5.3
			c-3.3,2.4-5.9,5.3-7.4,9c-1.1,2.5-1.7,5.1-2.2,7.8c-0.1,0.3-0.1,0.6,0,0.8c0.1,0.5,0.4,1,1,1.1c0.6,0.1,1.1,0,1.4-0.6
			c0.2-0.3,0.4-0.7,0.5-1.1c0.6-1.5,1.2-3,1.7-4.6c1.1-3.1,2.9-5.7,5.5-7.8c1.4-1.1,2.9-2.1,4.4-2.9c5.8-3.1,11.8-3.7,18.2-2.2
			c0.3,0.1,0.5,0.2,0.8,0.3c-0.2,0.2-0.3,0.2-0.5,0.2c-5.8,0.8-10.4,3.5-13.7,8.3c-0.9,1.3-1.7,2.6-2.3,4
			c-3.5,8.2-2.5,15.8,3.2,22.7c1.5,1.8,3.3,3.2,5.5,4c2.8,1.1,5.5,1,8.1-0.6c1.1-0.7,1.9-1.6,2.5-2.7c0.3-0.5,0.2-1-0.2-1.4
			c-0.4-0.4-0.9-0.5-1.4-0.3c-0.3,0.1-0.6,0.3-0.9,0.5c-0.4,0.2-0.7,0.5-1.1,0.8c-0.8,0.7-1.8,0.9-2.8,0.9c-1.2-0.1-2.2-0.5-3.2-1.2
			c-1.4-1-2.7-2.1-3.7-3.5c-2.5-3.2-3.7-6.9-3.5-11c0.1-3.7,1.5-6.9,3.6-9.9c2.8-3.8,6.6-5.7,11.3-6c4.7-0.3,8.9,1.1,12.7,3.8
			c3.5,2.6,6.5,5.6,8.8,9.3c3.5,5.5,5.9,11.4,7.8,17.6c2.4,7.7,3.8,15.7,5,23.7c0.8,5.3,1.5,10.7,2.2,16.1c0.1,0.9,0.2,1.7,0.3,2.6
			c-0.5-0.2-0.7-0.5-1-0.8c-2.1-2.3-4.4-4.4-7.3-5.8c-4.6-2.1-9.1-2.4-13.7-0.1c-4.3,2.1-7.6,6.8-7.1,12.2c0.4,4,3,7.4,6.8,8.5
			c1.8,0.6,3.6,0.5,5.3-0.5c1.7-0.9,2.5-2.4,2.6-4.3c0.1-1.1-0.3-2.1-0.8-3c-0.3-0.5-0.7-0.7-1.3-0.6c-0.5,0.1-0.9,0.4-1,0.9
			c-0.1,0.3-0.1,0.7-0.1,1c0,0.4,0,0.8,0,1.1c0,0.8-0.5,1.3-1.2,1.5c-0.7,0.2-1.4,0.1-2.1-0.1c-2.9-1.1-4-3.9-3.7-6.4
			c0.3-2.9,1.9-5,4.5-6.4c2.3-1.2,4.8-1.5,7.4-0.9c2.5,0.6,4.6,2,6.6,3.7c2.5,2.2,4.5,4.8,6.3,7.6c1.1,1.7,1.7,3.4,2,5.4
			c0.8,5.6,1.8,11.2,3.1,16.8c1.6,6.7,3.9,13.1,7.3,19.1c0.6,1.1,1.3,2.2,1.9,3.3c3.4,6.9,7.5,13.3,12.3,19.4
			c8.7,11,18.9,20.3,30.3,28.4c6,4.3,12.3,8.1,19,11.1c2.6,1.1,5.2,2.2,8,2.7c0.5,0.1,1,0.1,1.4,0.1c0.6,0,1-0.4,1.2-0.9
			c0.1-0.5-0.1-1-0.6-1.3c-0.3-0.2-0.7-0.3-1-0.5c-2.8-1.3-5.6-2.6-8.4-4c-0.3-0.2-0.6-0.4-1-0.5c0.2-0.8,0.6-1.4,1.2-1.8
			c1.6-1.1,3.3-2.1,5.1-2.7c5.9-1.9,11.9-2.5,17.9-1.1c3.3,0.8,6.2,2.1,8.7,4.5c0.8,0.8,1.5,1.7,2,2.8c0.6,1.4,0.7,3.6-1.2,5.2
			c-0.8,0.6-1.7,1.1-2.6,1.4c-0.8,0.2-1.6,0.2-2.4,0c-1.2-0.3-2.2-2.2-1.1-3.3c0.4-0.4,0.6-1.1,0.8-1.8c0.2-0.6,0.1-1.2-0.5-1.6
			c-0.6-0.4-1.1-0.2-1.7,0.1c-2.2,1.2-3.2,4-2.3,6.4c1.1,2.8,3.2,4.2,6.9,4c2.6-0.1,4.8-1.4,6.6-3.2c1-1,1.7-2.3,2-3.7
			c0.6-2.8,0-5.4-1.6-7.7c-1.3-1.8-2.9-3.3-4.7-4.5c-0.2-0.1-0.4-0.3-0.8-0.6c0.5,0,0.7,0,1,0.1c2.2,0.2,4.4,0.4,6.6,0.5
			c6.4,0.2,12.5-0.9,18.3-3.4c5.2-2.3,9.9-5.2,13.7-9.5c7.8-8.8,11.2-19.3,11.9-30.8c0.2-2.8,0-5.5,0.4-8.3
			c0.6-4.3,1.6-8.6,3.4-12.6c1.8-4.2,4.2-8,7.5-11.2c2.7-2.6,5.7-4.5,9.4-5.3c3.6-0.8,6.9-0.3,9.3,3c0.4,0.6,0.9,1.1,1.4,1.5
			c0.7,0.6,1.5,0.7,2.1,0.2c0.6-0.5,0.8-1.3,0.3-2.1c-0.6-1.1-1.3-2.2-2-3.2c-1.2-1.6-2.8-2.7-4.8-3.3c-2.7-0.8-5.4-0.8-8.1-0.1
			c-4.2,1.1-7.8,3.4-10.9,6.4c-3.2,3.1-5.5,6.8-7.4,10.7c-0.1,0.3-0.2,0.7-0.6,0.8c0-1.3,0-2.6,0-3.8c0.1-2.5,0.1-5,0.4-7.5
			c0.8-6.6,3-12.7,6.1-18.5c3-5.5,6.8-10.2,11.8-14c3-2.3,6.4-4,10.1-4.8c3-0.7,5.8-0.3,8.2,1.7c2.2,1.8,3.2,4.1,2.8,6.9
			c-0.4,3.1-2,5.5-5,6.6c-0.7,0.3-1.5,0.3-2.2,0.3c-1.1-0.1-1.8-0.7-2.1-1.8c-0.1-0.5-0.2-1-0.2-1.4c-0.1-0.8-0.6-1.3-1.3-1.3
			c-0.7,0-1.1,0.4-1.3,1.3c-0.1,0.4-0.1,0.9-0.1,1.3c0,2.7,1.4,4.5,4,5.1c4,0.9,7.5-0.5,9.9-3.8c2.7-3.8,3.3-8,1.5-12.4
			c-2.4-5.9-8.7-9.2-15.2-8c-4.1,0.8-7.9,2.4-11.3,4.8c-3.6,2.5-6.7,5.6-9.4,9.1c-0.2,0.3-0.4,0.5-0.7,0.8c-0.1,0-0.1-0.1-0.2-0.1
			c0.1-0.3,0.2-0.7,0.3-1c0.5-1.4,1-2.7,1.6-4.1c3.8-8.9,8.4-17.4,14.5-24.9c4.4-5.4,9.4-10.2,15.3-14c2.8-1.8,5.8-3.1,9-4
			c3.7-0.9,7.3-1.1,11,0.1c2.9,1,5.3,2.6,6.6,5.5c1.9,4.1,1.7,8.2-0.5,12.1c-2.2,3.8-5.4,6.1-9.7,6.7c-3,0.4-5.3-2.1-4.5-5.1
			c0.2-0.8,0.6-1.5,0.9-2.3c0.2-0.5,0.4-1,0.4-1.5c0-1-0.8-1.4-1.6-1c-0.8,0.4-1.4,0.9-1.8,1.7c-0.3,0.6-0.6,1.2-0.9,1.8
			c-1,1.9-0.9,3.9-0.1,5.8c1.3,3.2,4.8,5,8.4,4.6c3.3-0.4,6.1-1.7,8.7-3.7c5.7-4.4,8-10.2,6.8-17.3c-0.7-4.5-3-8.1-7-10.6
			c-3.8-2.3-8-3-12.4-2.8c-1,0.1-2,0.2-3.1,0.3c0.6-0.6,1.4-0.9,2.2-1.2c4.4-1.7,8.9-2.8,13.7-2.4c5.3,0.4,9.7,2.6,12.8,7
			c4.8,6.8,5.9,14.2,3.3,22.1c-0.8,2.5-1.7,5-2.6,7.5c-0.1,0.3-0.2,0.6-0.3,0.9c-0.2,0.7,0.2,1.5,0.8,1.7c0.6,0.3,1.4,0.1,1.8-0.5
			c0.2-0.3,0.4-0.6,0.5-0.9c0.9-1.9,1.9-3.9,2.7-5.8c1.3-2.9,2.1-5.9,2.4-9C374.5,199.9,372.7,193.3,368.2,187.5z M321.7,187.7
			c-1.6,2-3.1,4-4.7,6c-0.2,0.3-0.4,0.5-0.7,0.9c-0.1-1-0.2-1.9-0.4-2.7c-1.1-6-4.2-10.7-9.4-14c-1.4-0.9-3-1.4-4.7-1.6
			c-1.2-0.1-2.4,0-3.4,0.6c-0.5,0.3-1.1,0.7-1.4,1.1c-1,1.3-0.5,3.1,1.1,3.7c1,0.4,2.1,0.7,3.2,0.7c3,0.1,5.2,1.6,6.6,4.2
			c1.1,2.1,1.7,4.3,1.9,6.7c0.3,5-0.6,9.9-2.6,14.5c-0.2,0.6-0.6,1.1-1,1.6c-9.3,12.3-15.6,26.1-19.2,41.1c-1.1,4.8-1.7,9.7-2,14.6
			c-0.1,1.4-0.3,2.8-0.4,4.2c-0.2,1.9-0.3,3.8-0.5,5.7c-0.1-0.3-0.2-0.5-0.3-0.8c-1.1-2.8-2.3-5.5-4.2-7.9
			c-3.3-4.3-7.5-7.5-12.7-9.1c-3.3-1-6.4-0.7-9.4,0.9c-0.8,0.5-1.7,0.9-2.6,1.3c-1,0.6-1.4,1.4-1,2.2c0.4,0.8,1.2,1,2.3,0.6
			c1.2-0.4,2.4-0.9,3.6-1.4c2-0.8,4.1-0.8,6.1-0.1c4.3,1.5,7.8,4.2,10.7,7.8c2,2.6,3.4,5.6,4.5,8.6c0.4,1.2,0.8,2.4,1.1,3.7
			c-0.2-0.2-0.4-0.3-0.6-0.5c-3.4-3.1-7.3-4.4-11.9-3.9c-3.4,0.4-6.2,1.9-8.5,4.4c-2.9,3-4.4,6.6-4,10.9c0.2,1.9,0.6,3.7,1.7,5.2
			c2,2.6,4.5,4.2,8,4.1c1.7-0.1,3.2-0.8,4.6-1.8c0.9-0.6,1.1-1.5,0.7-2.4c-0.4-0.9-1.3-1.2-2.2-0.8c-0.8,0.3-1.7,0.6-2.5,0.9
			c-1,0.4-2,0.1-2.9-0.4c-2.1-1.2-3-3.2-3.2-5.5c-0.2-3.2,1.2-5.8,3.5-7.9c4.3-3.9,10.2-3.1,13.6-0.1c2.7,2.4,4.3,5.3,5.2,8.7
			c1.2,4.5,1.5,9.1,1.1,13.8c-0.6,5.9-1.9,11.6-4.4,16.9c-3.7,7.7-9.3,13.5-17.2,17c-3.9,1.7-7.8,3-12.1,3.4
			c-0.6,0.1-1.1,0.1-1.7-0.1c0.3-0.2,0.7-0.3,1-0.5c3.2-1.5,6.1-3.5,8.5-6c2.7-2.8,4.5-6.1,5.1-9.9c0.3-1.8,0.3-3.7-0.2-5.5
			c-0.8-3.1-2.7-5.5-5.6-6.8c-4.8-2.2-9.4-1.9-13.7,1.3c-2.2,1.7-3.8,3.9-4.3,6.7c-0.5,2.8,0.3,5.3,2.7,6.9c2.5,1.7,5.3,1.9,7.9,0.2
			c0.8-0.5,1.5-1.3,2.2-2.1c0.5-0.6,0.6-1.4,0.3-2.2c-0.2-0.5-0.4-0.9-1-1c-0.5-0.1-1,0.1-1.3,0.5c-0.1,0.2-0.3,0.4-0.4,0.6
			c-0.9,1.5-2.8,2.3-4.5,1.7c-1.9-0.7-3-2.3-2.6-4.2c0.6-3,2.5-4.8,5.3-5.8c2.8-1,5.5-0.6,8,0.9c2,1.2,3.1,3.1,3.3,5.4
			c0.2,2-0.2,3.9-1,5.8c-1,2.3-2.5,4.2-4.4,5.9c-2.5,2.3-5.4,4-8.6,5.2c-3.3,1.3-6.7,1.9-10.1,2.3c-1.2,0.1-2.4-0.1-3.6-0.2
			c-5.1-0.4-10.1-0.6-15.1,0.3c-3,0.5-5.8,1.4-8.4,2.9c-2.6,1.5-4.6,3.4-5.8,6.2c-0.1,0.2-0.2,0.3-0.3,0.5c-0.1-0.1-0.3-0.1-0.3-0.1
			c-2.4-1.9-5-3.7-7.3-5.7c-5.9-5.2-9.7-11.6-11.1-19.4c-0.7-4.1-0.7-8.2,0.3-12.3c0.4-1.5,1-2.9,1.9-4.1c0.9-1.1,1.9-2,3.4-2.2
			c0.6-0.1,1.3-0.3,1.9-0.5c0.9-0.3,1.2-0.9,1.2-1.6c-0.1-0.7-0.6-1.2-1.5-1.3c-3.2-0.6-5.6,0.6-7.6,3c-2,2.4-3.1,5.2-3.6,8.3
			c-1.4,9.6,0.5,18.5,6.2,26.4c0.1,0.2,0.2,0.3,0.3,0.5c0,0,0,0.1,0,0.2c-0.2-0.1-0.4-0.2-0.6-0.4c-11.2-8.5-21.2-18.3-29.5-29.7
			c-3.3-4.5-6.1-9.2-8.6-14.1c-1.7-3.4-3.2-6.9-4.4-10.5c-1.6-5.1-2.6-10.4-2.5-15.7c0-5.9,1.2-11.6,3.9-17c1.6-3.1,3.7-5.8,6.6-7.9
			c2.7-1.9,5.7-3,9-3c5.1,0.1,9.9,3.8,11.1,8.5c0.6,2.4,0.3,4.7-0.7,6.9c-0.6,1.2-1.5,2.2-2.8,2.7c-0.6,0.2-1.3,0.5-1.9,0.8
			c-0.4,0.2-0.8,0.4-1,0.7c-0.5,0.6-0.2,1.3,0.6,1.5c0.3,0,0.6,0.1,0.9,0c1.3-0.4,2.7-0.8,3.9-1.4c1.5-0.7,2.4-2,3.1-3.5
			c2.4-5.2,1.3-11-2.5-15.1c-5.4-5.8-13.2-6-18.9-3.3c-4,1.9-7.1,4.8-9.5,8.5c-0.6,1-1.2,2-2,3c0-0.2,0-0.4,0.1-0.6
			c1.8-6.1,4.6-11.6,9.2-16.1c3.5-3.4,7.6-5.7,12.2-7c1.5-0.4,3-1,4.4-1.5c0.4-0.1,0.8-0.3,1.1-0.6c0.5-0.4,0.6-0.9,0.4-1.5
			c-0.2-0.6-0.6-1-1.2-1c-0.7,0-1.4,0-2.1,0c-5.8,0.5-10.9,2.8-15.4,6.5c-7.2,5.9-11.4,13.6-13.2,22.6c-0.2,1.1-0.3,2.1-0.4,3.2
			c0,0.2-0.1,0.4-0.3,0.6c-0.1-0.5-0.2-1-0.3-1.5c-0.6-4.7-1.2-9.5-1.7-14.2c-1.2-9.5-2.4-19.1-4.4-28.5c-1.7-8.2-4.2-16.1-7.9-23.6
			c-2.8-5.7-6.5-10.7-11.6-14.5c-1.7-1.3-3.1-2.7-4.6-4.2c-2.2-2.3-4.5-4.4-6.9-6.5c-2.5-2.1-4.8-4.4-7-6.8c-4-4.6-6.7-9.9-7.7-16
			c-0.5-3-0.7-5.9,0.1-8.9c0.9-3.2,2.7-5.8,5.6-7.6c1.4-0.8,2.9-1,4.5-0.6c0.9,0.2,1.7,0.6,2.3,1.3c0.4,0.4,0.8,0.8,1.3,1.2
			c0.7,0.6,1.5,0.6,2,0.2c0.5-0.4,0.6-1.1,0.1-1.9c-1.4-2.6-3.7-4-6.6-4.2c-2.7-0.2-5,0.6-7.1,2.2c-3.3,2.6-5.3,6-6,10.1
			c-0.9,4.6-0.2,9,1.1,13.4c1.2,4,3.1,7.6,5.6,11c0.1,0.2,0.3,0.4,0.4,0.6c0,0,0,0.1,0,0.2c-0.1-0.1-0.3-0.1-0.3-0.2
			c-3.9-3.2-7.4-6.6-9.9-11c-2.9-5.1-4.6-10.6-4.9-16.5c-0.4-6.1,0.2-12.1,2.4-17.9c3.7-9.8,10.4-16.6,20.2-20.4
			c3.2-1.2,6.6-1.7,10.1-1.2c2.3,0.4,4.5,1.2,6.4,2.5c0.5,0.4,1,0.8,1.4,1.2c1.6,1.6,2.2,3.5,1.7,5.7c-0.4,1.5-0.9,2.9-1.9,4.1
			c-0.8,0.9-1.7,1.6-3,1.8c-0.3,0-0.6,0.1-0.9,0.2c-0.6,0.2-1,0.7-1,1.2c0,0.6,0.3,1.1,0.9,1.2c1.5,0.4,3,0.6,4.3-0.3
			c0.7-0.4,1.4-1,2-1.6c2.3-2.6,3.5-5.6,3.5-9.1c0-0.2,0-0.3,0-0.5c0-0.1,0-0.1,0.1-0.2c0.2,0.1,0.4,0.2,0.6,0.3
			c2.8,1.5,5.8,2.2,9,2.3c4.3,0.1,8.5-0.6,12.6-1.8c3.2-0.9,6.4-1.9,9.6-2.8c0.3-0.1,0.6-0.2,1.2-0.3c-0.3,0.5-0.5,0.7-0.7,1
			c-2.1,3.1-3.6,6.4-4.1,10.1c-0.9,7,1.3,12.9,6.5,17.6c3.6,3.1,7.8,3.8,12.4,2.4c1.3-0.4,2.4-1,3.4-1.9c3.6-3.2,5.6-7.2,5.2-12.1
			c-0.2-2.1-0.8-4.1-2.2-5.8c-3.7-4.6-8.9-3.1-11.4-0.1c-0.9,1.1-1.7,2.3-1.8,3.8c0,0.2-0.1,0.5,0,0.7c0.1,1.1,0.7,1.9,1.6,2.1
			c0.9,0.2,1.8-0.2,2.4-1.1c0.3-0.5,0.5-1.1,0.7-1.6c0.2-0.6,0.6-1.2,1.1-1.6c1.6-1.1,3.1-1,4.3,0.6c1.1,1.4,1.4,3,1.4,4.7
			c-0.1,3-1.5,5.4-3.7,7.3c-1.9,1.5-4.2,1.8-6.5,1.3c-2.1-0.5-3.8-1.6-5.2-3.3c-3.9-5-4.6-10.5-2.3-16.3c1.9-5,5.5-8.6,10.1-11
			c1.2-0.6,2.6-0.9,4-1.2c4.5-1.1,9.1-1.8,13.8-1.6c2.7,0.2,5.3,0.7,7.8,1.8c9,4,15.2,10.8,19.3,19.6c2,4.3,3,8.8,3.4,13.6
			c0.2,2.3,0.3,4.6,0.4,7c0,0.3,0,0.6-0.1,1c-0.1-0.2-0.3-0.4-0.3-0.6c-0.8-1.9-1.6-3.8-2.5-5.7c-2.9-6-6.7-11.2-11.8-15.5
			c-3.6-3-7.6-5.1-12.2-6.1c-0.6-0.1-1.2-0.1-1.8-0.1c-0.5,0-0.9,0.2-1,0.7c-0.2,0.5,0.1,0.9,0.5,1.2c0.6,0.4,1.2,0.8,1.8,1.2
			c0.3,0.2,0.5,0.3,0.8,0.5c8.8,4.4,14.8,11.4,19.2,20c2.6,5.1,4.6,10.4,6.5,15.8c0.4,1.1,0.8,2.3,1.3,3.4c0.4,0.9,1,1.5,2,1.6
			c1,0.1,1.8-0.2,2.4-0.9c0.5-0.6,0.9-1.2,1.3-1.8c2-3.2,4.3-6.1,7-8.7c2.8-2.7,6-4.7,9.7-5.9c1.1-0.4,2.1-0.8,3.2-1.3
			c1-0.5,1.4-1,1.2-1.7c-0.2-0.7-0.9-1-2-0.7c-3,0.6-5.8,1.7-8.4,3.2c-2.7,1.5-5,3.3-7.2,5.4c-0.3,0.3-0.5,0.5-0.9,0.7
			c0-0.2,0.1-0.4,0.2-0.6c1.9-5.6,4.5-10.8,8-15.6c3-4.2,6.7-7.7,11.3-10.1c3.4-1.8,7-2.9,11-2.8c3.5,0.1,6.8,1.1,9.8,3.1
			c3,2.1,4.7,4.9,5.3,8.5c0.2,1.1,0.1,2.2-0.3,3.2c-1.1,3.3-3.2,5.8-6.6,6.7c-2.9,0.8-5.3-0.8-5.9-3.7c-0.1-0.6-0.2-1.3-0.3-1.9
			c0-0.2-0.1-0.5-0.2-0.7c-0.2-0.4-0.5-0.7-0.9-0.6c-0.3,0.1-0.6,0.3-0.8,0.5c-0.1,0.1-0.1,0.2-0.2,0.4c-0.7,4.2,1.1,8,5.2,9.1
			c2,0.5,4,0.2,5.9-0.7c4.5-2.1,7.2-5.7,7.9-10.5c0.8-5.4-1.4-9.8-5.3-13.4c-2.3-2.1-5.1-3.3-8-4.2c-0.3-0.1-0.5-0.2-0.8-0.2
			c-0.1,0-0.1-0.1-0.2-0.3c1.8-0.3,3.4-0.6,5.1-0.8c5.5-0.7,10.9-0.4,16.4-0.1c5.6,0.4,11.3,0.9,16.9,1.2c4.7,0.3,9.5,0.3,14.2-0.5
			c6.4-1.1,11.7-4,15.8-9.1c0.1-0.1,0.2-0.3,0.4-0.5c0.1,0.3,0.2,0.5,0.3,0.7c1.2,4,4.1,6.4,8.2,6.8c5.2,0.5,9-1.6,11.7-5.9
			c1.5-2.5,1.8-5.1,0.8-7.9c-0.5-1.3-1.3-2.4-2.6-3.2c-0.6-0.4-1.3-0.6-2.1-0.5c-1.8,0.1-3,1.6-2.6,3.4c0.1,0.3,0.2,0.6,0.3,0.9
			c0.5,1.1,0.4,2.2,0.1,3.3c-0.4,1.6-1.3,3-2.5,4.1c-0.5,0.5-1.2,0.9-1.9,1.1c-2.2,0.7-3.7,0.1-4.6-2.4c-0.6-1.6-0.5-3.2-0.1-4.8
			c1.3-6.1,6.9-10,13.3-9.1c6.2,0.9,11.4,3.8,15.6,8.4c5.2,5.8,8.4,12.6,9.4,20.4c0.5,4,0.6,8.1,0.3,12.1c-0.3,4.4-1.4,8.6-3,12.7
			c-0.3,0.8-0.6,1.5-0.9,2.3c-0.1,0-0.2,0-0.3-0.1c0-0.4,0-0.8,0-1.2c-0.1-4-0.8-7.9-2.9-11.3c-1.5-2.4-3.4-4.5-5.9-5.9
			c-7.9-4.7-18.3,0.3-19.6,9.4c-0.3,2.1-0.1,4.2,1.1,6c1.1,1.8,2.6,2.8,4.7,3.1c1.2,0.2,2.3-0.2,3.2-0.9c0.5-0.4,1-0.8,1.4-1.2
			c0.6-0.5,0.7-1.1,0.4-1.7c-0.3-0.6-0.9-0.7-1.7-0.4c-0.5,0.2-1,0.5-1.5,0.7c-1,0.4-1.7,0.3-2.4-0.6c-0.9-1-1.1-2.2-1-3.5
			c0.3-4,3.1-7.1,7-8c2.8-0.6,5.3-0.1,7.5,1.7c3.2,2.6,4.9,6.1,5.5,10.1c0.7,4.6,0,9.1-1.5,13.5c-0.9,2.6-2.1,5-3.8,7.2
			c-5.8,7.4-11.9,14.5-18.5,21.1C329.8,178.8,325.5,183,321.7,187.7z"/>
		<path class="st92" d="M109.8,233.7c2.5-0.2,4.2-1.7,4.6-4.2c0.1-0.4,0.1-0.9,0.1-1.3c-0.1-2-0.2-4.1-0.4-6.1
			c-0.3-3.2-1.2-6.2-2.4-9.1c-0.3-0.7-0.8-1.5-1.3-2.1c-1.7-1.8-4.4-1.6-5.9,0.4c-0.5,0.7-0.8,1.4-1.1,2.2c-0.7,2.2-0.5,4.5-0.4,6.7
			c0,0.3,0.1,0.7,0.1,1.2c-0.4-0.2-0.7-0.4-0.9-0.5c-0.9-0.4-1.7-0.9-2.6-1.2c-1.7-0.6-3.5-0.9-5.4-0.5c-3,0.7-4.4,3.6-3.1,6.4
			c0.3,0.7,0.8,1.4,1.4,1.9c0.7,0.7,1.5,1.3,2.3,1.9c3.1,2.2,6.6,3.3,10.3,3.9C106.6,233.5,108.2,233.8,109.8,233.7z"/>
		<path class="st92" d="M269.5,85.6c0.7,2.5,1.9,4.8,3.8,6.6c2.5,2.4,4.8,2.4,7.3,0.1c2.6-2.5,4.9-5.2,6.9-8.1
			c0.6-0.9,1.2-2,1.5-3.1c0.8-2.8-1.5-5.1-4.4-4.5c-1.1,0.2-2.1,0.7-3,1.5c-1,0.9-2,1.9-2.9,2.8c-0.2,0.2-0.5,0.5-0.8,0.8
			c-0.4-1.1-0.8-2-1.2-2.9c-0.7-1.2-1.6-2.2-3-2.6c-1.5-0.5-3,0-3.8,1.3c-0.8,1.2-1.3,2.6-1.2,4C268.9,82.8,269.1,84.3,269.5,85.6z"
			/>
		<path class="st92" d="M139.7,87c0.6,0.6,1.3,1.2,2,1.6c1.6,1,3.3,0.9,4.7-0.3c2.4-2,4.4-4.3,5.8-7.1c0.5-0.9,0.7-1.9,0.7-2.9
			c-0.1-2.8-2.9-4.4-5.3-3c-0.5,0.2-0.9,0.6-1.3,0.9c-0.6,0.5-1.2,1.1-1.9,1.7c-0.3-0.4-0.5-0.7-0.7-1c-0.8-1.3-1.7-2.4-3-3.3
			c-2.8-1.9-6-0.1-6.4,2.9c-0.1,1,0.2,1.9,0.5,2.8C136.1,82.2,137.6,84.8,139.7,87z"/>
		<path class="st92" d="M102.3,197.7c0.4-0.4,0.8-0.8,1.1-1.3c1.1-1.8,2.3-3.6,3.3-5.4c0.5-0.9,0.7-1.9,0.7-2.9
			c-0.2-2.9-3.2-4.4-5.6-2.8c-0.4,0.3-0.8,0.6-1.1,0.9c-0.8,0.8-1.6,1.7-2.4,2.6c-0.3-0.4-0.5-0.7-0.7-1c-0.8-1-1.7-1.9-3-2.4
			c-2.1-0.7-4.2,0.6-4.4,2.8c0,0.7,0.2,1.5,0.5,2.2c1.1,2.5,2.7,4.8,4.8,6.6c0.6,0.5,1.3,1,2,1.3C99.2,199.3,100.9,199,102.3,197.7z
			"/>
		<path class="st92" d="M324.3,208.5c-0.8-1.5-2.6-2.1-4-1.3c-1.2,0.7-2.3,1.6-2.8,2.9c-1.2,3.2-1.5,6.4-0.6,9.7
			c0.7,2.4,2.8,4,5.6,2.9c2.4-0.9,4.6-2.1,6.6-3.6c0.7-0.5,1.2-1.1,1.7-1.8c0.5-0.7,0.7-1.5,0.5-2.4c-0.4-1.9-2.2-3.1-4.1-2.7
			c-0.8,0.2-1.5,0.5-2.4,0.8c0-0.5,0.1-0.9,0.1-1.2C324.9,210.6,324.8,209.5,324.3,208.5z"/>
		<path class="st92" d="M306.2,250.9c-0.5,0-1.1,0.2-1.6,0.2c-0.2-0.8-0.3-1.6-0.6-2.3c-1-2.4-3.9-2.8-5.6-0.8
			c-0.4,0.4-0.7,1-0.9,1.5c-0.5,1.3-0.9,2.6-1.2,4c-0.3,1.4-0.3,2.8,0.2,4.2c0.6,2,2.4,3,4.5,2.6c2.4-0.4,4.6-1.4,6.6-2.8
			c0.7-0.5,1.3-1.1,1.7-1.8c0.8-1.1,0.8-2.3,0.1-3.4C308.7,251.2,307.6,250.8,306.2,250.9z"/>
		<path class="st92" d="M250.1,90.1c0.8,1.4,1.6,2.9,2.8,4c0.8,0.7,1.7,1.5,2.7,1.9c2,1,3.9,0.5,5.1-1.4c1.1-1.7,2-3.5,2.7-5.5
			c0.2-0.7,0.4-1.3,0.4-2c0.1-1.4-0.3-2.7-1.7-3.4c-1.3-0.7-2.6-0.4-3.7,0.5c-0.7,0.6-1.2,1.3-1.8,2c-0.3,0.4-0.6,0.8-0.8,1.1
			c-0.7-0.5-1.3-1-1.9-1.3c-1-0.5-2.1-0.5-3,0.2c-0.9,0.7-1.2,1.7-1,2.9C249.9,89.5,250,89.8,250.1,90.1z"/>
		<path class="st92" d="M61,161.4c1.5,2.2,3.2,4.1,5.6,5.3c2.4,1.2,4.7,0.3,5.7-2.1c0.7-1.6,1.2-3.3,1.7-5c0.4-1.3,0.3-2.5-0.3-3.7
			c-1.1-2.1-3.6-2.5-5.1-0.8c-0.7,0.8-1.3,1.9-1.9,2.8c-0.2,0.3-0.3,0.5-0.4,0.9c-0.3-0.2-0.5-0.4-0.8-0.6c-0.6-0.4-1.1-0.8-1.7-1
			c-1-0.4-1.9-0.2-2.7,0.5c-0.8,0.8-0.9,1.7-0.6,2.7C60.6,160.7,60.8,161.1,61,161.4z"/>
		<path class="st92" d="M357.7,168.5c-0.8,0.4-1.6,0.9-2.3,1.3c-0.5-0.7-0.8-1.4-1.3-1.9c-0.6-0.7-1.5-1-2.5-0.7c-1,0.3-1.6,1-1.7,2
			c-0.3,2.7,0.5,5.1,2.4,7c1.1,1.1,2.6,1.3,3.9,0.5c1.6-0.9,3.2-2,4.4-3.4c0.5-0.5,0.9-1.2,1.1-1.8c0.6-1.7-0.5-3.4-2.2-3.5
			C358.9,168,358.2,168.2,357.7,168.5z"/>
		<path class="st92" d="M135.8,113.8c-1.1,0.1-2,0.7-2.8,1.3c-0.8,0.6-1.6,1.3-2.5,2.1c-0.2-0.5-0.3-0.9-0.4-1.2
			c-0.5-1.2-0.9-2.3-1.4-3.4c-0.5-1-1.2-1.8-2.2-2.4c-2.3-1.5-4.9-0.9-6.3,1.6c-0.8,1.4-1,2.9-0.9,4.5c0.3,4.1,1.6,7.9,3.7,11.5
			c0.7,1.1,1.5,2.2,2.6,3c1.8,1.4,3.7,1.4,5.6,0.2c0.3-0.2,0.5-0.4,0.8-0.6c3.2-2.6,5.6-6,7.5-9.6c0.6-1,0.8-2.1,0.7-3.3
			C139.9,115,138,113.5,135.8,113.8z"/>
		<path class="st92" d="M111.1,140.9c-1.2,0.2-2.1,0.9-2.7,1.8c-0.9,1.4-1.7,2.8-2.6,4.3c-0.2,0.3-0.3,0.6-0.5,1
			c-0.8-1.2-1.5-2.2-2.3-3.2c-1.7-2.1-3.5-2.1-5.4-0.3c-0.9,0.9-1.2,1.8-0.8,3c1.1,3.8,3.3,6.8,6.3,9.4c0.3,0.2,0.6,0.5,0.9,0.7
			c2.8,1.8,5.7,1.2,7.5-1.6c1.8-2.8,3.1-5.9,3.8-9.2c0.2-1,0.3-2,0.1-3C114.8,141.8,113,140.6,111.1,140.9z"/>
		<path class="st92" d="M166.7,297.6c-0.7,0.5-1.3,1.2-1.9,1.9c-0.4,0.5-0.8,1.1-1.2,1.7c-0.7-0.7-1.2-1.4-1.8-2
			c-0.9-0.9-2-1.5-3.2-1.8c-2.2-0.6-4.6,0.6-4.8,3.2c0,0.6,0.1,1.3,0.2,1.8c1.1,3.5,3.1,6.4,6.1,8.6c0.9,0.7,2,1.2,3.1,1.5
			c1.9,0.5,3.7,0.2,4.9-1.5c1.5-2.1,2.9-4.4,3.5-6.9c0.4-1.4,0.7-2.9,0.4-4.4C171.4,297.1,168.8,296.1,166.7,297.6z"/>
		<path class="st92" d="M207.4,327.7c-0.6,0.2-1.1,0.4-1.6,0.7c-0.7,0.5-1.3,1-1.9,1.6c-0.7,0.6-1.3,1.2-2,1.9
			c-0.3-0.7-0.5-1.4-0.9-2c-0.5-0.8-0.9-1.6-1.5-2.2c-1.6-1.6-4.2-1-5,1.1c-0.2,0.6-0.3,1.4-0.3,2c0.3,3.4,1.7,6.3,3.7,9
			c0.6,0.7,1.3,1.4,2,1.9c1.8,1.2,3.8,1,5.3-0.6c0.2-0.2,0.5-0.5,0.7-0.8c2-2.3,3.4-5,4.9-7.7c0.2-0.4,0.4-0.8,0.5-1.3
			C212,329,209.9,327,207.4,327.7z"/>
		<path class="st92" d="M266.9,311.6c0.4,2.3,1.2,4.5,2.5,6.4c1.8,2.6,4.3,2.8,6.6,0.7c1.9-1.7,3.4-3.8,4.4-6.1
			c0.3-0.6,0.5-1.2,0.6-1.9c0.5-2.6-1.5-4.7-4-4.2c-0.8,0.2-1.6,0.6-2.2,1.1c-0.7,0.6-1.4,1.3-2.2,2c-0.4-0.7-0.7-1.4-1.1-2
			c-0.6-0.9-1.5-1.4-2.6-1.3c-1.2,0.1-1.9,0.9-2.2,1.9c-0.2,0.5-0.2,1-0.2,1.5C266.7,310.5,266.8,311.1,266.9,311.6z"/>
		<path class="st92" d="M93.5,103c-0.7,0.7-1.2,1.6-1.6,2.4c-0.4,0.7-0.6,1.5-0.9,2.5c-0.4-0.3-0.7-0.5-1-0.7
			c-0.7-0.4-1.3-0.8-2.1-1c-1.1-0.3-2.1,0-2.8,0.9c-0.7,0.9-0.6,1.9-0.1,2.8c0.2,0.3,0.4,0.6,0.6,0.8c1.4,1.4,2.8,2.7,4.2,4
			c0.9,0.8,2,1.4,3.2,1.6c2.2,0.5,4.1-0.5,4.8-2.7c0.5-1.8,1-3.6,1.3-5.4c0.2-1.3,0.2-2.6-0.1-3.8C98.3,101.9,95.5,101,93.5,103z"/>
		<path class="st92" d="M348.3,102.8c0.8,1.8,1.8,3.6,3,5.2c0.6,0.7,1.3,1.3,2.1,1.6c1.5,0.6,2.9,0.5,4.1-0.6
			c1.9-1.8,3.6-3.8,4.6-6.2c0.3-0.7,0.4-1.5,0.3-2.2c-0.1-1.7-1.6-2.8-3.2-2.7c-0.8,0.1-1.4,0.4-2,0.8c-1,0.9-1.9,1.8-3,2.7
			c-0.5-0.6-1-1.2-1.6-1.7c-1.1-1-2.5-1.2-3.5-0.5C348,100,347.7,101.3,348.3,102.8C348.2,102.8,348.2,102.8,348.3,102.8z"/>
	</g>
</g>
</svg>
